<svg width="1135" height="1135" viewBox="0 0 1135 1135" fill="none" xmlns="http://www.w3.org/2000/svg">
<path d="M25.5814 1133.09C34.7056 1134.83 44.035 1135.38 53.3156 1134.74C104.29 1134.16 155.104 1129.2 205.143 1119.94C296.666 1103.33 384.236 1074.95 468.271 1037.21C573.245 990.054 668.546 928.744 754.747 854.794C823.896 795.212 886.504 729.108 941.606 657.499C1007.49 572.424 1060.85 480.328 1109 385.381C1111.63 380.207 1113.88 374.872 1115.76 369.411C1100.61 388.479 1030.45 461.163 972.158 514.595C913.87 568.027 852.605 614.014 762.859 677.029C673.113 740.045 617.515 775.009 534.573 807.707C495.017 823.298 454.785 836.17 411.034 835.066C373.819 834.126 343.311 810.641 335.857 776.163C330.241 750.254 335.944 725.401 345.322 701.289C376.783 620.433 425.595 550.059 489.193 488.585C553.154 426.748 624.033 372.559 695.968 319.671C819.142 229.371 945.888 143.851 1070.48 55.4634C1092.43 39.9548 1091.86 40.1392 1135 7.15772C1092.38 -33.3616 846.114 108.351 724.43 176.451C625.575 231.81 526.374 286.528 427.467 341.591C344.628 387.655 261.443 433.126 179.437 480.526C147.82 498.803 120.571 520.608 103.896 553.042C78.5537 602.436 52.3102 651.484 26.5521 700.729C23.0854 707.107 25.2694 712.81 31.7523 716.765C38.2352 720.72 43.4006 718.215 49.0861 714.705C122.79 669.118 196.979 624.241 268.793 576.083C272.415 573.693 276.021 570.76 280.458 573.693C284.618 576.429 284.203 580.78 283.336 584.966C281.048 595.877 275.622 605.551 270.127 615.192C243.422 661.856 216.78 708.552 190.201 755.281C133.45 854.975 75.4509 954.125 20.3293 1054.66L20.0469 1055.18C12.8427 1068.35 5.62942 1081.55 1.5914 1096.03C-3.8861 1115.46 4.93683 1128.66 25.5814 1133.09Z" fill="white"/>
<path d="M230.225 351.793C208.228 351.694 192.316 336.597 194.5 315.534C199.353 268.563 212.492 224.048 246.155 187.394C261.53 170.683 280.562 158.256 300.41 146.884C344.438 121.668 391.794 102.797 437.936 81.6026C448.042 76.9549 458.096 72.126 468.479 68.0881C487.182 60.8035 506.405 73.0324 505.954 91.3923C505.777 94.9595 504.578 98.4128 502.488 101.38C473.898 146.428 445.315 191.476 416.737 236.524C400.998 261.246 377.545 277.529 351.354 291.291C318.419 308.662 285.988 327.203 253.331 345.2C245.825 349.37 237.973 352.749 230.225 351.793Z" fill="white"/>
</svg>
